<svg xmlns="http://www.w3.org/2000/svg" xmlns:xlink="http://www.w3.org/1999/xlink" width="500" zoomAndPan="magnify" viewBox="0 0 375 374.999991" height="500" preserveAspectRatio="xMidYMid meet" version="1.0"><defs><clipPath id="db4e0ef996"><path d="M 45.742188 307.128906 L 332.351562 307.128906 L 332.351562 375 L 45.742188 375 Z M 45.742188 307.128906 " clip-rule="nonzero"/></clipPath><clipPath id="ab6d62b7d2"><path d="M 167.277344 313.839844 L 332.351562 313.839844 L 332.351562 375 L 167.277344 375 Z M 167.277344 313.839844 " clip-rule="nonzero"/></clipPath><clipPath id="2514bc53c0"><path d="M 177 3.28125 L 201 3.28125 L 201 73 L 177 73 Z M 177 3.28125 " clip-rule="nonzero"/></clipPath><clipPath id="1c5e378c02"><path d="M 308 195.464844 L 375 195.464844 L 375 219 L 308 219 Z M 308 195.464844 " clip-rule="nonzero"/></clipPath></defs><path fill="#e21d27" d="M 287.546875 184.335938 L 287.546875 301.433594 L 90.574219 301.433594 L 90.574219 184.335938 C 90.574219 130.144531 134.667969 86.21875 189.066406 86.21875 C 217.203125 86.21875 242.585938 97.980469 260.535156 116.839844 C 277.277344 134.414062 287.546875 158.175781 287.546875 184.335938 " fill-opacity="1" fill-rule="nonzero"/><path fill="#c21e25" d="M 178.347656 295.808594 L 199.773438 295.808594 L 199.773438 180.113281 L 178.347656 180.113281 Z M 178.347656 295.808594 " fill-opacity="1" fill-rule="nonzero"/><path fill="#c21e25" d="M 178.347656 221.164062 L 117.796875 237.960938 L 117.796875 181.457031 L 178.347656 196.90625 L 178.347656 221.164062 " fill-opacity="1" fill-rule="nonzero"/><path fill="#c21e25" d="M 199.773438 221.164062 L 260.324219 237.960938 L 260.324219 181.457031 L 199.773438 196.90625 L 199.773438 221.164062 " fill-opacity="1" fill-rule="nonzero"/><path fill="#bf1e25" d="M 287.546875 288.773438 L 199.773438 288.773438 L 199.773438 264.726562 C 210.222656 255.175781 220.332031 243.523438 229.207031 229.328125 L 260.324219 237.960938 L 260.324219 181.457031 L 249.65625 184.179688 C 255.636719 164.875 259.558594 142.582031 260.535156 116.839844 C 277.277344 134.414062 287.546875 158.175781 287.546875 184.335938 L 287.546875 288.773438 M 178.347656 288.773438 L 166.03125 288.773438 C 170.0625 286.570312 174.183594 284.117188 178.347656 281.378906 L 178.347656 288.773438 " fill-opacity="1" fill-rule="nonzero"/><path fill="#a21c21" d="M 199.773438 288.773438 L 178.347656 288.773438 L 178.347656 281.378906 C 185.464844 276.695312 192.699219 271.191406 199.773438 264.726562 L 199.773438 288.773438 " fill-opacity="1" fill-rule="nonzero"/><path fill="#a21c21" d="M 260.324219 237.960938 L 229.207031 229.328125 C 237.25 216.476562 244.28125 201.535156 249.65625 184.179688 L 260.324219 181.457031 L 260.324219 237.960938 " fill-opacity="1" fill-rule="nonzero"/><g clip-path="url(#db4e0ef996)"><path fill="#3c3335" d="M 332.308594 375.296875 L 45.808594 375.296875 C 45.808594 356.507812 53.410156 339.496094 65.710938 327.175781 C 71.074219 321.804688 77.34375 317.320312 84.257812 313.972656 C 93.183594 309.671875 103.1875 307.253906 113.75 307.253906 L 264.367188 307.253906 C 274.941406 307.253906 284.949219 309.671875 293.859375 313.984375 C 316.613281 324.980469 332.308594 348.304688 332.308594 375.296875 " fill-opacity="1" fill-rule="nonzero"/></g><path fill="#a79c9d" d="M 84.257812 314.09375 L 293.859375 314.09375 L 293.859375 288.773438 L 84.257812 288.773438 Z M 84.257812 314.09375 " fill-opacity="1" fill-rule="nonzero"/><g clip-path="url(#ab6d62b7d2)"><path fill="#332b2c" d="M 332.308594 375.296875 L 167.644531 375.296875 C 196.515625 347.605469 174.375 314.09375 174.375 314.09375 L 293.859375 314.09375 L 293.859375 313.984375 C 316.613281 324.980469 332.308594 348.304688 332.308594 375.296875 " fill-opacity="1" fill-rule="nonzero"/></g><path fill="#8c8285" d="M 293.859375 314.09375 L 174.375 314.09375 C 177.191406 311.992188 178.984375 309.660156 180.03125 307.253906 C 182.925781 300.625 180.195312 293.40625 177.617188 288.773438 L 293.859375 288.773438 L 293.859375 314.09375 " fill-opacity="1" fill-rule="nonzero"/><path fill="#f2788f" d="M 130.457031 154.457031 C 124.398438 154.457031 119.238281 152.445312 116.132812 148.332031 C 109.144531 139.070312 115.261719 122.640625 129.800781 111.636719 C 137.882812 105.515625 146.867188 102.363281 154.453125 102.363281 C 160.507812 102.363281 165.671875 104.371094 168.777344 108.484375 C 175.765625 117.75 169.648438 134.179688 155.109375 145.183594 C 147.027344 151.300781 138.042969 154.457031 130.457031 154.457031 " fill-opacity="1" fill-rule="nonzero"/><g clip-path="url(#2514bc53c0)"><path fill="#e86c19" d="M 189.058594 72.914062 L 177.441406 3.28125 L 200.679688 3.28125 L 189.058594 72.914062 " fill-opacity="1" fill-rule="nonzero"/></g><path fill="#e86c19" d="M 255.886719 91.074219 L 280.582031 24.953125 L 300.710938 36.589844 L 255.886719 91.074219 " fill-opacity="1" fill-rule="nonzero"/><path fill="#e86c19" d="M 304.695312 140.269531 L 359.089844 95.375 L 370.710938 115.535156 L 304.695312 140.269531 " fill-opacity="1" fill-rule="nonzero"/><g clip-path="url(#1c5e378c02)"><path fill="#e86c19" d="M 308.207031 207.320312 L 377.722656 195.679688 L 377.722656 218.957031 L 308.207031 207.320312 " fill-opacity="1" fill-rule="nonzero"/></g><path fill="#e86c19" d="M 121.066406 90.933594 L 76.246094 36.453125 L 96.371094 24.8125 L 121.066406 90.933594 " fill-opacity="1" fill-rule="nonzero"/><path fill="#e86c19" d="M 71.179688 140.59375 L 5.164062 115.859375 L 16.785156 95.703125 L 71.179688 140.59375 " fill-opacity="1" fill-rule="nonzero"/><path fill="#e86c19" d="M 69.804688 209.710938 L 0.289062 221.347656 L 0.289062 198.070312 L 69.804688 209.710938 " fill-opacity="1" fill-rule="nonzero"/></svg>